<svg width="24" height="23" viewBox="0 0 24 23" fill="none" xmlns="http://www.w3.org/2000/svg">
<path d="M7.7925 21.9784H3.68C2.165 21.9784 0.9375 20.7509 0.9375 19.2359V11.1684C0.938423 10.5807 1.06492 9.99992 1.30853 9.46506C1.55213 8.93021 1.90722 8.45359 2.35 8.06712L9.7625 1.61087C10.2616 1.17665 10.9009 0.9375 11.5625 0.9375C12.2241 0.9375 12.8634 1.17665 13.3625 1.61087L20.775 8.06837C21.2176 8.4547 21.5726 8.93112 21.8162 9.46574C22.0598 10.0004 22.1864 10.5809 22.1875 11.1684V19.2359C22.1875 19.963 21.8987 20.6604 21.3847 21.1747C20.8706 21.6889 20.1734 21.978 19.4462 21.9784H15.675V13.7521C15.675 12.6171 14.755 11.6959 13.6188 11.6959H9.85C8.71375 11.6959 7.79375 12.6171 7.79375 13.7521L7.7925 21.9784ZM7.7925 21.9784H15.6763" stroke="#5E5E5E" stroke-width="1.875" stroke-linejoin="round"/>
</svg>
