<svg width="40" height="40" viewBox="0 0 40 40" fill="none" xmlns="http://www.w3.org/2000/svg">
<path d="M27.0183 18.51L16.2283 13.1133C15.9232 12.9607 15.5842 12.8886 15.2435 12.9039C14.9027 12.9192 14.5716 13.0214 14.2815 13.2008C13.9913 13.3802 13.7519 13.6308 13.586 13.9288C13.42 14.2267 13.333 14.5622 13.3333 14.9033V25.0967C13.333 25.4377 13.42 25.7732 13.586 26.0712C13.7519 26.3692 13.9913 26.6198 14.2815 26.7992C14.5716 26.9786 14.9027 27.0808 15.2435 27.0961C15.5842 27.1114 15.9232 27.0393 16.2283 26.8867L27.0183 21.49C27.2947 21.3514 27.5272 21.1387 27.6896 20.8755C27.8521 20.6124 27.9381 20.3092 27.9381 20C27.9381 19.6907 27.8521 19.3876 27.6896 19.1244C27.5272 18.8613 27.2947 18.6485 27.0183 18.51Z" stroke="#222222" stroke-width="1.66667" stroke-linecap="round" stroke-linejoin="round"/>
<path d="M20 35C28.2843 35 35 28.2843 35 20C35 11.7157 28.2843 5 20 5C11.7157 5 5 11.7157 5 20C5 28.2843 11.7157 35 20 35Z" stroke="#222222" stroke-width="1.66667"/>
</svg>
