<svg width="22" height="27" viewBox="0 0 22 27" fill="none" xmlns="http://www.w3.org/2000/svg">
<path fill-rule="evenodd" clip-rule="evenodd" d="M10.9376 0C9.36285 0 7.85262 0.625556 6.73912 1.73905C5.62563 2.85255 5.00007 4.36278 5.00007 5.9375C5.00007 7.51222 5.62563 9.02245 6.73912 10.1359C7.85262 11.2494 9.36285 11.875 10.9376 11.875C12.5123 11.875 14.0225 11.2494 15.136 10.1359C16.2495 9.02245 16.8751 7.51222 16.8751 5.9375C16.8751 4.36278 16.2495 2.85255 15.136 1.73905C14.0225 0.625556 12.5123 0 10.9376 0ZM6.87507 5.9375C6.87507 4.86006 7.30308 3.82675 8.06495 3.06488C8.82682 2.30301 9.86013 1.875 10.9376 1.875C12.015 1.875 13.0483 2.30301 13.8102 3.06488C14.5721 3.82675 15.0001 4.86006 15.0001 5.9375C15.0001 7.01494 14.5721 8.04825 13.8102 8.81012C13.0483 9.57199 12.015 10 10.9376 10C9.86013 10 8.82682 9.57199 8.06495 8.81012C7.30308 8.04825 6.87507 7.01494 6.87507 5.9375ZM10.9376 13.75C8.04632 13.75 5.38132 14.4075 3.40757 15.5175C1.46257 16.6125 6.98774e-05 18.27 6.98774e-05 20.3125V20.44C-0.00118012 21.8925 -0.00243023 23.715 1.59632 25.0175C2.38257 25.6575 3.48382 26.1138 4.97132 26.4137C6.46132 26.7163 8.40507 26.875 10.9376 26.875C13.4701 26.875 15.4126 26.7163 16.9051 26.4137C18.3926 26.1138 19.4926 25.6575 20.2801 25.0175C21.8788 23.715 21.8763 21.8925 21.8751 20.44V20.3125C21.8751 18.27 20.4126 16.6125 18.4688 15.5175C16.4938 14.4075 13.8301 13.75 10.9376 13.75ZM1.87507 20.3125C1.87507 19.2488 2.65257 18.0938 4.32632 17.1525C5.97132 16.2275 8.30632 15.625 10.9388 15.625C13.5688 15.625 15.9038 16.2275 17.5488 17.1525C19.2238 18.0938 20.0001 19.2488 20.0001 20.3125C20.0001 21.9475 19.9501 22.8675 19.0951 23.5625C18.6326 23.94 17.8576 24.3087 16.5326 24.5762C15.2113 24.8438 13.4051 25 10.9376 25C8.47007 25 6.66257 24.8438 5.34257 24.5762C4.01757 24.3087 3.24257 23.94 2.78007 23.5637C1.92507 22.8675 1.87507 21.9475 1.87507 20.3125Z" fill="#5E5E5E"/>
</svg>
